<svg width="512" height="512" version="1.1" viewBox="0 0 512 512" xmlns="http://www.w3.org/2000/svg" xmlns:xlink="http://www.w3.org/1999/xlink">
 <defs>
  <linearGradient id="linearGradient25720">
   <stop stop-color="#727272" offset="0"/>
   <stop stop-color="#737373" offset=".47297"/>
   <stop stop-color="#525252" offset=".51689"/>
   <stop stop-color="#565656" offset="1"/>
  </linearGradient>
  <linearGradient id="linearGradient24627">
   <stop stop-color="#148075" offset="0"/>
   <stop stop-color="#148075" offset=".34797"/>
   <stop stop-color="#11675f" offset=".5473"/>
   <stop stop-color="#116b64" offset="1"/>
  </linearGradient>
  <linearGradient id="linearGradient24615">
   <stop stop-color="#5f5f5f" offset="0"/>
   <stop stop-color="#3c3c3c" offset=".98986"/>
  </linearGradient>
  <linearGradient id="linearGradient23735" x1="216" x2="296" y1="324.51" y2="324.51" gradientUnits="userSpaceOnUse" xlink:href="#linearGradient25720"/>
  <linearGradient id="linearGradient23747" x1="254.14" x2="254.34" y1="162.17" y2="194.36" gradientUnits="userSpaceOnUse" xlink:href="#linearGradient24627"/>
  <linearGradient id="linearGradient24609" x1="225.8" x2="285.02" y1="30.52" y2="71.037" gradientUnits="userSpaceOnUse" xlink:href="#linearGradient24627"/>
  <linearGradient id="linearGradient24617" x1="242.35" x2="269.65" y1="127.41" y2="127.41" gradientUnits="userSpaceOnUse" xlink:href="#linearGradient24615"/>
  <linearGradient id="linearGradient24643" x1="231.46" x2="285.66" y1="70.101" y2="33.349" gradientUnits="userSpaceOnUse" xlink:href="#linearGradient24627"/>
  <linearGradient id="linearGradient24645" x1="256" x2="256" y1="195.33" y2="156.53" gradientUnits="userSpaceOnUse" xlink:href="#linearGradient24627"/>
  <clipPath id="clipPath24948">
   <path d="m294.4 326.19-82.639 14.028 1.7165 91.677 86.39-31.962z" display="none" fill="#8b7f58"/>
   <path class="powerclip" d="m129.01 5h254.13v492.5h-254.13zm165.39 321.19-82.639 14.028 1.7165 91.677 86.39-31.962z" fill="#8b7f58"/>
  </clipPath>
 </defs>
 <g transform="rotate(-37.016 233.49 363.11)" clip-path="url(#clipPath24948)">
  <path x="242.34668" y="62.693333" width="27.306646" height="129.42857" d="m242.35 62.693h27.307v129.43h-27.307z" fill="url(#linearGradient24617)"/>
  <path d="m269.65 156.53 26.347 281.35-40 54.613-40-53.638 26.347-282.33z" fill="url(#linearGradient23735)"/>
  <circle cx="256" cy="50" r="40" d="M 296,50 A 40,40 0 0 1 256,90 40,40 0 0 1 216,50 40,40 0 0 1 256,10 40,40 0 0 1 296,50 Z" fill="url(#linearGradient24609)"/>
  <path d="m148.24 165.32c-14.712 16.206-14.228 41.741-14.228 41.741s19.538-11.389 66.775-11.734l111.48 0.3448c37.928 0.6896 65.87 11.239 65.87 11.239s0.34456-25.04-14.25-41.59c-107.58-11.723-107.88-11.724-215.64-8.2e-4z" fill="url(#linearGradient23747)"/>
 </g>
 <g transform="rotate(37.557 277.94 368.11)">
  <rect x="242.35" y="62.693" width="27.307" height="129.43" fill="url(#linearGradient24617)"/>
  <path d="m269.65 156.53 26.347 281.35-40 54.613-40-53.638 26.347-282.33z" fill="url(#linearGradient23735)"/>
  <circle cx="256" cy="50" r="40" fill="url(#linearGradient24643)"/>
  <path d="m148.24 165.32c-14.712 16.206-14.228 41.741-14.228 41.741s19.538-11.389 66.775-11.734l111.48 0.3448c37.928 0.6896 65.87 11.239 65.87 11.239s0.34456-25.04-14.25-41.59c-107.58-11.723-107.88-11.724-215.64-8.2e-4z" fill="url(#linearGradient24645)"/>
 </g>
</svg>
